<svg id="account_circle_black_24dp_1_" data-name="account_circle_black_24dp (1)" xmlns="http://www.w3.org/2000/svg" width="25.853" height="25.853" viewBox="0 0 25.853 25.853">
  <path id="Trazado_14" data-name="Trazado 14" d="M0,0H25.853V25.853H0Z" fill="none"/>
  <path id="Trazado_15" data-name="Trazado 15" d="M12.772,2A10.772,10.772,0,1,0,23.544,12.772,10.776,10.776,0,0,0,12.772,2ZM7.461,19.537c.463-.969,3.285-1.917,5.311-1.917s4.858.948,5.311,1.917a8.537,8.537,0,0,1-10.621,0Zm12.162-1.562c-1.54-1.874-5.278-2.51-6.851-2.51s-5.311.636-6.851,2.51a8.618,8.618,0,1,1,13.7,0ZM12.772,6.309a3.77,3.77,0,1,0,3.77,3.77A3.761,3.761,0,0,0,12.772,6.309Zm0,5.386a1.616,1.616,0,1,1,1.616-1.616A1.614,1.614,0,0,1,12.772,11.695Z" transform="translate(0.154 0.154)" fill="#313131"/>
</svg>
